# xmcd
#
# Track frame offsets:
#       150
#       11845
#       20282
#       29607
#       39582
#       50632
#       65372
#       77470
#       88097
#       100887
#       112165
#       122992
#       137672
#       157567
#       171615
#
# Disc length: 2466 seconds
#
# Revision: 0
# Processed by: cddbd v1.4PL0 Copyright (c) Steve Scherf et al.
# Submitted via: CD-DA_X-Tractor v0.23
#
DISCID=c609a00f
DTITLE=Julie London - Sophisticated Lady Two
DYEAR=1998
DGENRE=
TTITLE0=Fly Me To The Moon
TTITLE1=I Love You
TTITLE2=Let There Be Love
TTITLE3=Mad About The Boy
TTITLE4=Sentimental Journey
TTITLE5=There Will Never Be Another You
TTITLE6=Vaya Con Dios
TTITLE7=Our Day Will Come
TTITLE8=In The Wee Small Hours Of The Morning
TTITLE9=I'm In The Mood For Love
TTITLE10=Goodbye
TTITLE11=Easy Street
TTITLE12=Every Time We Say Goodbye
TTITLE13=Give A Little Whistle
TTITLE14=Black Coffee
EXTD=
EXTT0=
EXTT1=
EXTT2=
EXTT3=
EXTT4=
EXTT5=
EXTT6=
EXTT7=
EXTT8=
EXTT9=
EXTT10=
EXTT11=
EXTT12=
EXTT13=
EXTT14=
PLAYORDER=
